solid ASCII
  facet normal -1.000000e+00 0.000000e+00 0.000000e+00
    outer loop
      vertex   1.368000e+02 9.828001e+01 1.300000e+01
      vertex   1.368000e+02 1.032800e+02 1.300000e+01
      vertex   1.368000e+02 9.828001e+01 3.000000e+00
    endloop
  endfacet
  facet normal -1.000000e+00 0.000000e+00 0.000000e+00
    outer loop
      vertex   1.368000e+02 9.828001e+01 3.000000e+00
      vertex   1.368000e+02 1.032800e+02 1.300000e+01
      vertex   1.368000e+02 1.032800e+02 3.000000e+00
    endloop
  endfacet
  facet normal -0.000000e+00 1.000000e+00 0.000000e+00
    outer loop
      vertex   1.318000e+02 9.828001e+01 1.300000e+01
      vertex   1.368000e+02 9.828001e+01 1.300000e+01
      vertex   1.318000e+02 9.828001e+01 3.000000e+00
    endloop
  endfacet
  facet normal 0.000000e+00 1.000000e+00 0.000000e+00
    outer loop
      vertex   1.318000e+02 9.828001e+01 3.000000e+00
      vertex   1.368000e+02 9.828001e+01 1.300000e+01
      vertex   1.368000e+02 9.828001e+01 3.000000e+00
    endloop
  endfacet
  facet normal 1.000000e+00 0.000000e+00 0.000000e+00
    outer loop
      vertex   1.318000e+02 1.032800e+02 1.300000e+01
      vertex   1.318000e+02 9.828001e+01 1.300000e+01
      vertex   1.318000e+02 1.032800e+02 3.000000e+00
    endloop
  endfacet
  facet normal 1.000000e+00 0.000000e+00 0.000000e+00
    outer loop
      vertex   1.318000e+02 1.032800e+02 3.000000e+00
      vertex   1.318000e+02 9.828001e+01 1.300000e+01
      vertex   1.318000e+02 9.828001e+01 3.000000e+00
    endloop
  endfacet
  facet normal -0.000000e+00 -1.000000e+00 -0.000000e+00
    outer loop
      vertex   1.368000e+02 1.032800e+02 1.300000e+01
      vertex   1.318000e+02 1.032800e+02 1.300000e+01
      vertex   1.368000e+02 1.032800e+02 3.000000e+00
    endloop
  endfacet
  facet normal 0.000000e+00 -1.000000e+00 0.000000e+00
    outer loop
      vertex   1.368000e+02 1.032800e+02 3.000000e+00
      vertex   1.318000e+02 1.032800e+02 1.300000e+01
      vertex   1.318000e+02 1.032800e+02 3.000000e+00
    endloop
  endfacet
  facet normal 0.000000e+00 0.000000e+00 1.000000e+00
    outer loop
      vertex   1.368000e+02 1.032800e+02 3.000000e+00
      vertex   1.318000e+02 1.032800e+02 3.000000e+00
      vertex   1.368000e+02 9.828001e+01 3.000000e+00
    endloop
  endfacet
  facet normal 0.000000e+00 0.000000e+00 1.000000e+00
    outer loop
      vertex   1.368000e+02 9.828001e+01 3.000000e+00
      vertex   1.318000e+02 1.032800e+02 3.000000e+00
      vertex   1.318000e+02 9.828001e+01 3.000000e+00
    endloop
  endfacet
  facet normal -1.000000e+00 0.000000e+00 0.000000e+00
    outer loop
      vertex   4.140000e+01 9.828001e+01 1.300000e+01
      vertex   4.140000e+01 1.032800e+02 1.300000e+01
      vertex   4.140000e+01 9.828001e+01 3.000000e+00
    endloop
  endfacet
  facet normal -1.000000e+00 0.000000e+00 0.000000e+00
    outer loop
      vertex   4.140000e+01 9.828001e+01 3.000000e+00
      vertex   4.140000e+01 1.032800e+02 1.300000e+01
      vertex   4.140000e+01 1.032800e+02 3.000000e+00
    endloop
  endfacet
  facet normal -0.000000e+00 1.000000e+00 0.000000e+00
    outer loop
      vertex   3.640000e+01 9.828001e+01 1.300000e+01
      vertex   4.140000e+01 9.828001e+01 1.300000e+01
      vertex   3.640000e+01 9.828001e+01 3.000000e+00
    endloop
  endfacet
  facet normal 0.000000e+00 1.000000e+00 0.000000e+00
    outer loop
      vertex   3.640000e+01 9.828001e+01 3.000000e+00
      vertex   4.140000e+01 9.828001e+01 1.300000e+01
      vertex   4.140000e+01 9.828001e+01 3.000000e+00
    endloop
  endfacet
  facet normal 1.000000e+00 0.000000e+00 0.000000e+00
    outer loop
      vertex   3.640000e+01 1.032800e+02 1.300000e+01
      vertex   3.640000e+01 9.828001e+01 1.300000e+01
      vertex   3.640000e+01 1.032800e+02 3.000000e+00
    endloop
  endfacet
  facet normal 1.000000e+00 0.000000e+00 0.000000e+00
    outer loop
      vertex   3.640000e+01 1.032800e+02 3.000000e+00
      vertex   3.640000e+01 9.828001e+01 1.300000e+01
      vertex   3.640000e+01 9.828001e+01 3.000000e+00
    endloop
  endfacet
  facet normal -0.000000e+00 -1.000000e+00 -0.000000e+00
    outer loop
      vertex   4.140000e+01 1.032800e+02 1.300000e+01
      vertex   3.640000e+01 1.032800e+02 1.300000e+01
      vertex   4.140000e+01 1.032800e+02 3.000000e+00
    endloop
  endfacet
  facet normal 0.000000e+00 -1.000000e+00 0.000000e+00
    outer loop
      vertex   4.140000e+01 1.032800e+02 3.000000e+00
      vertex   3.640000e+01 1.032800e+02 1.300000e+01
      vertex   3.640000e+01 1.032800e+02 3.000000e+00
    endloop
  endfacet
  facet normal 0.000000e+00 0.000000e+00 1.000000e+00
    outer loop
      vertex   4.140000e+01 1.032800e+02 3.000000e+00
      vertex   3.640000e+01 1.032800e+02 3.000000e+00
      vertex   4.140000e+01 9.828001e+01 3.000000e+00
    endloop
  endfacet
  facet normal 0.000000e+00 0.000000e+00 1.000000e+00
    outer loop
      vertex   4.140000e+01 9.828001e+01 3.000000e+00
      vertex   3.640000e+01 1.032800e+02 3.000000e+00
      vertex   3.640000e+01 9.828001e+01 3.000000e+00
    endloop
  endfacet
  facet normal -1.000000e+00 0.000000e+00 0.000000e+00
    outer loop
      vertex   4.140000e+01 1.617800e+02 1.300000e+01
      vertex   4.140000e+01 1.667800e+02 1.300000e+01
      vertex   4.140000e+01 1.617800e+02 3.000000e+00
    endloop
  endfacet
  facet normal -1.000000e+00 0.000000e+00 0.000000e+00
    outer loop
      vertex   4.140000e+01 1.617800e+02 3.000000e+00
      vertex   4.140000e+01 1.667800e+02 1.300000e+01
      vertex   4.140000e+01 1.667800e+02 3.000000e+00
    endloop
  endfacet
  facet normal -0.000000e+00 1.000000e+00 0.000000e+00
    outer loop
      vertex   3.640000e+01 1.617800e+02 1.300000e+01
      vertex   4.140000e+01 1.617800e+02 1.300000e+01
      vertex   3.640000e+01 1.617800e+02 3.000000e+00
    endloop
  endfacet
  facet normal 0.000000e+00 1.000000e+00 0.000000e+00
    outer loop
      vertex   3.640000e+01 1.617800e+02 3.000000e+00
      vertex   4.140000e+01 1.617800e+02 1.300000e+01
      vertex   4.140000e+01 1.617800e+02 3.000000e+00
    endloop
  endfacet
  facet normal 1.000000e+00 0.000000e+00 0.000000e+00
    outer loop
      vertex   3.640000e+01 1.667800e+02 1.300000e+01
      vertex   3.640000e+01 1.617800e+02 1.300000e+01
      vertex   3.640000e+01 1.667800e+02 3.000000e+00
    endloop
  endfacet
  facet normal 1.000000e+00 0.000000e+00 0.000000e+00
    outer loop
      vertex   3.640000e+01 1.667800e+02 3.000000e+00
      vertex   3.640000e+01 1.617800e+02 1.300000e+01
      vertex   3.640000e+01 1.617800e+02 3.000000e+00
    endloop
  endfacet
  facet normal -0.000000e+00 -1.000000e+00 -0.000000e+00
    outer loop
      vertex   4.140000e+01 1.667800e+02 1.300000e+01
      vertex   3.640000e+01 1.667800e+02 1.300000e+01
      vertex   4.140000e+01 1.667800e+02 3.000000e+00
    endloop
  endfacet
  facet normal 0.000000e+00 -1.000000e+00 0.000000e+00
    outer loop
      vertex   4.140000e+01 1.667800e+02 3.000000e+00
      vertex   3.640000e+01 1.667800e+02 1.300000e+01
      vertex   3.640000e+01 1.667800e+02 3.000000e+00
    endloop
  endfacet
  facet normal 0.000000e+00 0.000000e+00 1.000000e+00
    outer loop
      vertex   4.140000e+01 1.667800e+02 3.000000e+00
      vertex   3.640000e+01 1.667800e+02 3.000000e+00
      vertex   4.140000e+01 1.617800e+02 3.000000e+00
    endloop
  endfacet
  facet normal 0.000000e+00 0.000000e+00 1.000000e+00
    outer loop
      vertex   4.140000e+01 1.617800e+02 3.000000e+00
      vertex   3.640000e+01 1.667800e+02 3.000000e+00
      vertex   3.640000e+01 1.617800e+02 3.000000e+00
    endloop
  endfacet
  facet normal -1.000000e+00 0.000000e+00 0.000000e+00
    outer loop
      vertex   1.368000e+02 1.617800e+02 1.300000e+01
      vertex   1.368000e+02 1.667800e+02 1.300000e+01
      vertex   1.368000e+02 1.617800e+02 3.000000e+00
    endloop
  endfacet
  facet normal -1.000000e+00 0.000000e+00 0.000000e+00
    outer loop
      vertex   1.368000e+02 1.617800e+02 3.000000e+00
      vertex   1.368000e+02 1.667800e+02 1.300000e+01
      vertex   1.368000e+02 1.667800e+02 3.000000e+00
    endloop
  endfacet
  facet normal -0.000000e+00 1.000000e+00 0.000000e+00
    outer loop
      vertex   1.318000e+02 1.617800e+02 1.300000e+01
      vertex   1.368000e+02 1.617800e+02 1.300000e+01
      vertex   1.318000e+02 1.617800e+02 3.000000e+00
    endloop
  endfacet
  facet normal 0.000000e+00 1.000000e+00 0.000000e+00
    outer loop
      vertex   1.318000e+02 1.617800e+02 3.000000e+00
      vertex   1.368000e+02 1.617800e+02 1.300000e+01
      vertex   1.368000e+02 1.617800e+02 3.000000e+00
    endloop
  endfacet
  facet normal 1.000000e+00 0.000000e+00 0.000000e+00
    outer loop
      vertex   1.318000e+02 1.667800e+02 1.300000e+01
      vertex   1.318000e+02 1.617800e+02 1.300000e+01
      vertex   1.318000e+02 1.667800e+02 3.000000e+00
    endloop
  endfacet
  facet normal 1.000000e+00 0.000000e+00 0.000000e+00
    outer loop
      vertex   1.318000e+02 1.667800e+02 3.000000e+00
      vertex   1.318000e+02 1.617800e+02 1.300000e+01
      vertex   1.318000e+02 1.617800e+02 3.000000e+00
    endloop
  endfacet
  facet normal -0.000000e+00 -1.000000e+00 -0.000000e+00
    outer loop
      vertex   1.368000e+02 1.667800e+02 1.300000e+01
      vertex   1.318000e+02 1.667800e+02 1.300000e+01
      vertex   1.368000e+02 1.667800e+02 3.000000e+00
    endloop
  endfacet
  facet normal 0.000000e+00 -1.000000e+00 0.000000e+00
    outer loop
      vertex   1.368000e+02 1.667800e+02 3.000000e+00
      vertex   1.318000e+02 1.667800e+02 1.300000e+01
      vertex   1.318000e+02 1.667800e+02 3.000000e+00
    endloop
  endfacet
  facet normal 0.000000e+00 0.000000e+00 1.000000e+00
    outer loop
      vertex   1.368000e+02 1.667800e+02 3.000000e+00
      vertex   1.318000e+02 1.667800e+02 3.000000e+00
      vertex   1.368000e+02 1.617800e+02 3.000000e+00
    endloop
  endfacet
  facet normal 0.000000e+00 0.000000e+00 1.000000e+00
    outer loop
      vertex   1.368000e+02 1.617800e+02 3.000000e+00
      vertex   1.318000e+02 1.667800e+02 3.000000e+00
      vertex   1.318000e+02 1.617800e+02 3.000000e+00
    endloop
  endfacet
  facet normal -1.000000e+00 0.000000e+00 0.000000e+00
    outer loop
      vertex   1.097467e+02 1.592800e+02 3.614196e+00
      vertex   1.097467e+02 1.592800e+02 6.614459e+00
      vertex   1.097467e+02 1.692800e+02 3.614196e+00
    endloop
  endfacet
  facet normal -1.000000e+00 0.000000e+00 0.000000e+00
    outer loop
      vertex   1.097467e+02 1.692800e+02 3.614196e+00
      vertex   1.097467e+02 1.592800e+02 6.614459e+00
      vertex   1.097467e+02 1.692800e+02 6.614459e+00
    endloop
  endfacet
  facet normal 0.000000e+00 0.000000e+00 1.000000e+00
    outer loop
      vertex   1.009463e+02 1.592800e+02 3.614196e+00
      vertex   1.097467e+02 1.592800e+02 3.614196e+00
      vertex   1.009463e+02 1.692800e+02 3.614196e+00
    endloop
  endfacet
  facet normal -0.000000e+00 0.000000e+00 1.000000e+00
    outer loop
      vertex   1.009463e+02 1.692800e+02 3.614196e+00
      vertex   1.097467e+02 1.592800e+02 3.614196e+00
      vertex   1.097467e+02 1.692800e+02 3.614196e+00
    endloop
  endfacet
  facet normal 1.000000e+00 -0.000000e+00 0.000000e+00
    outer loop
      vertex   1.009463e+02 1.592800e+02 6.614459e+00
      vertex   1.009463e+02 1.592800e+02 3.614196e+00
      vertex   1.009463e+02 1.692800e+02 6.614459e+00
    endloop
  endfacet
  facet normal 1.000000e+00 0.000000e+00 0.000000e+00
    outer loop
      vertex   1.009463e+02 1.692800e+02 6.614459e+00
      vertex   1.009463e+02 1.592800e+02 3.614196e+00
      vertex   1.009463e+02 1.692800e+02 3.614196e+00
    endloop
  endfacet
  facet normal 0.000000e+00 0.000000e+00 -1.000000e+00
    outer loop
      vertex   1.097467e+02 1.592800e+02 6.614459e+00
      vertex   1.009463e+02 1.592800e+02 6.614459e+00
      vertex   1.097467e+02 1.692800e+02 6.614459e+00
    endloop
  endfacet
  facet normal -0.000000e+00 0.000000e+00 -1.000000e+00
    outer loop
      vertex   1.097467e+02 1.692800e+02 6.614459e+00
      vertex   1.009463e+02 1.592800e+02 6.614459e+00
      vertex   1.009463e+02 1.692800e+02 6.614459e+00
    endloop
  endfacet
  facet normal -1.000000e+00 0.000000e+00 0.000000e+00
    outer loop
      vertex   1.293000e+02 1.592800e+02 3.000000e+00
      vertex   1.293000e+02 1.057800e+02 3.000000e+00
      vertex   1.293000e+02 1.592800e+02 1.300000e+01
    endloop
  endfacet
  facet normal -1.000000e+00 -0.000000e+00 0.000000e+00
    outer loop
      vertex   1.293000e+02 1.592800e+02 1.300000e+01
      vertex   1.293000e+02 1.057800e+02 3.000000e+00
      vertex   1.293000e+02 1.057800e+02 1.300000e+01
    endloop
  endfacet
  facet normal 0.000000e+00 1.000000e+00 -0.000000e+00
    outer loop
      vertex   1.293000e+02 1.057800e+02 3.000000e+00
      vertex   4.390000e+01 1.057800e+02 3.000000e+00
      vertex   1.293000e+02 1.057800e+02 1.300000e+01
    endloop
  endfacet
  facet normal 0.000000e+00 1.000000e+00 0.000000e+00
    outer loop
      vertex   1.293000e+02 1.057800e+02 1.300000e+01
      vertex   4.390000e+01 1.057800e+02 3.000000e+00
      vertex   4.390000e+01 1.057800e+02 1.300000e+01
    endloop
  endfacet
  facet normal 0.000000e+00 -1.000000e+00 -0.000000e+00
    outer loop
      vertex   1.009463e+02 1.592800e+02 6.614459e+00
      vertex   4.390000e+01 1.592800e+02 3.000000e+00
      vertex   1.009463e+02 1.592800e+02 3.614196e+00
    endloop
  endfacet
  facet normal 0.000000e+00 -1.000000e+00 -0.000000e+00
    outer loop
      vertex   1.009463e+02 1.592800e+02 3.614196e+00
      vertex   4.390000e+01 1.592800e+02 3.000000e+00
      vertex   1.293000e+02 1.592800e+02 3.000000e+00
    endloop
  endfacet
  facet normal 0.000000e+00 -1.000000e+00 0.000000e+00
    outer loop
      vertex   1.009463e+02 1.592800e+02 3.614196e+00
      vertex   1.293000e+02 1.592800e+02 3.000000e+00
      vertex   1.097467e+02 1.592800e+02 3.614196e+00
    endloop
  endfacet
  facet normal 0.000000e+00 -1.000000e+00 0.000000e+00
    outer loop
      vertex   1.097467e+02 1.592800e+02 3.614196e+00
      vertex   1.293000e+02 1.592800e+02 3.000000e+00
      vertex   1.097467e+02 1.592800e+02 6.614459e+00
    endloop
  endfacet
  facet normal 0.000000e+00 -1.000000e+00 0.000000e+00
    outer loop
      vertex   1.097467e+02 1.592800e+02 6.614459e+00
      vertex   1.293000e+02 1.592800e+02 3.000000e+00
      vertex   1.293000e+02 1.592800e+02 1.300000e+01
    endloop
  endfacet
  facet normal 0.000000e+00 -1.000000e+00 0.000000e+00
    outer loop
      vertex   1.097467e+02 1.592800e+02 6.614459e+00
      vertex   1.293000e+02 1.592800e+02 1.300000e+01
      vertex   1.009463e+02 1.592800e+02 6.614459e+00
    endloop
  endfacet
  facet normal 0.000000e+00 -1.000000e+00 0.000000e+00
    outer loop
      vertex   1.009463e+02 1.592800e+02 6.614459e+00
      vertex   1.293000e+02 1.592800e+02 1.300000e+01
      vertex   4.390000e+01 1.592800e+02 1.300000e+01
    endloop
  endfacet
  facet normal -0.000000e+00 -1.000000e+00 0.000000e+00
    outer loop
      vertex   1.009463e+02 1.592800e+02 6.614459e+00
      vertex   4.390000e+01 1.592800e+02 1.300000e+01
      vertex   4.390000e+01 1.592800e+02 3.000000e+00
    endloop
  endfacet
  facet normal 1.000000e+00 0.000000e+00 0.000000e+00
    outer loop
      vertex   4.390000e+01 1.057800e+02 3.000000e+00
      vertex   4.390000e+01 1.592800e+02 3.000000e+00
      vertex   4.390000e+01 1.057800e+02 1.300000e+01
    endloop
  endfacet
  facet normal 1.000000e+00 -0.000000e+00 0.000000e+00
    outer loop
      vertex   4.390000e+01 1.057800e+02 1.300000e+01
      vertex   4.390000e+01 1.592800e+02 3.000000e+00
      vertex   4.390000e+01 1.592800e+02 1.300000e+01
    endloop
  endfacet
  facet normal -1.000000e+00 0.000000e+00 0.000000e+00
    outer loop
      vertex   3.390000e+01 1.692800e+02 0.000000e+00
      vertex   3.390000e+01 9.578001e+01 0.000000e+00
      vertex   3.390000e+01 1.692800e+02 1.300000e+01
    endloop
  endfacet
  facet normal -1.000000e+00 -0.000000e+00 0.000000e+00
    outer loop
      vertex   3.390000e+01 1.692800e+02 1.300000e+01
      vertex   3.390000e+01 9.578001e+01 0.000000e+00
      vertex   3.390000e+01 9.578001e+01 1.300000e+01
    endloop
  endfacet
  facet normal 0.000000e+00 1.000000e+00 -0.000000e+00
    outer loop
      vertex   1.009463e+02 1.692800e+02 3.614196e+00
      vertex   3.390000e+01 1.692800e+02 0.000000e+00
      vertex   1.009463e+02 1.692800e+02 6.614459e+00
    endloop
  endfacet
  facet normal 0.000000e+00 1.000000e+00 0.000000e+00
    outer loop
      vertex   1.009463e+02 1.692800e+02 6.614459e+00
      vertex   3.390000e+01 1.692800e+02 0.000000e+00
      vertex   3.390000e+01 1.692800e+02 1.300000e+01
    endloop
  endfacet
  facet normal 0.000000e+00 1.000000e+00 -0.000000e+00
    outer loop
      vertex   1.009463e+02 1.692800e+02 6.614459e+00
      vertex   3.390000e+01 1.692800e+02 1.300000e+01
      vertex   1.393000e+02 1.692800e+02 1.300000e+01
    endloop
  endfacet
  facet normal 0.000000e+00 1.000000e+00 0.000000e+00
    outer loop
      vertex   3.390000e+01 1.692800e+02 0.000000e+00
      vertex   1.009463e+02 1.692800e+02 3.614196e+00
      vertex   1.393000e+02 1.692800e+02 0.000000e+00
    endloop
  endfacet
  facet normal 0.000000e+00 1.000000e+00 0.000000e+00
    outer loop
      vertex   1.393000e+02 1.692800e+02 0.000000e+00
      vertex   1.009463e+02 1.692800e+02 3.614196e+00
      vertex   1.097467e+02 1.692800e+02 3.614196e+00
    endloop
  endfacet
  facet normal 0.000000e+00 1.000000e+00 0.000000e+00
    outer loop
      vertex   1.393000e+02 1.692800e+02 0.000000e+00
      vertex   1.097467e+02 1.692800e+02 3.614196e+00
      vertex   1.097467e+02 1.692800e+02 6.614459e+00
    endloop
  endfacet
  facet normal 0.000000e+00 1.000000e+00 -0.000000e+00
    outer loop
      vertex   1.393000e+02 1.692800e+02 0.000000e+00
      vertex   1.097467e+02 1.692800e+02 6.614459e+00
      vertex   1.393000e+02 1.692800e+02 1.300000e+01
    endloop
  endfacet
  facet normal 0.000000e+00 1.000000e+00 0.000000e+00
    outer loop
      vertex   1.393000e+02 1.692800e+02 1.300000e+01
      vertex   1.097467e+02 1.692800e+02 6.614459e+00
      vertex   1.009463e+02 1.692800e+02 6.614459e+00
    endloop
  endfacet
  facet normal 1.000000e+00 0.000000e+00 0.000000e+00
    outer loop
      vertex   1.393000e+02 9.578001e+01 0.000000e+00
      vertex   1.393000e+02 1.692800e+02 0.000000e+00
      vertex   1.393000e+02 9.578001e+01 1.300000e+01
    endloop
  endfacet
  facet normal 1.000000e+00 -0.000000e+00 0.000000e+00
    outer loop
      vertex   1.393000e+02 9.578001e+01 1.300000e+01
      vertex   1.393000e+02 1.692800e+02 0.000000e+00
      vertex   1.393000e+02 1.692800e+02 1.300000e+01
    endloop
  endfacet
  facet normal 0.000000e+00 -1.000000e+00 0.000000e+00
    outer loop
      vertex   3.390000e+01 9.578001e+01 0.000000e+00
      vertex   1.393000e+02 9.578001e+01 0.000000e+00
      vertex   3.390000e+01 9.578001e+01 1.300000e+01
    endloop
  endfacet
  facet normal 0.000000e+00 -1.000000e+00 0.000000e+00
    outer loop
      vertex   3.390000e+01 9.578001e+01 1.300000e+01
      vertex   1.393000e+02 9.578001e+01 0.000000e+00
      vertex   1.393000e+02 9.578001e+01 1.300000e+01
    endloop
  endfacet
  facet normal 0.000000e+00 0.000000e+00 1.000000e+00
    outer loop
      vertex   1.393000e+02 9.578001e+01 1.300000e+01
      vertex   4.140000e+01 9.828001e+01 1.300000e+01
      vertex   3.390000e+01 9.578001e+01 1.300000e+01
    endloop
  endfacet
  facet normal 0.000000e+00 0.000000e+00 1.000000e+00
    outer loop
      vertex   3.390000e+01 9.578001e+01 1.300000e+01
      vertex   4.140000e+01 9.828001e+01 1.300000e+01
      vertex   3.640000e+01 9.828001e+01 1.300000e+01
    endloop
  endfacet
  facet normal 0.000000e+00 0.000000e+00 1.000000e+00
    outer loop
      vertex   3.390000e+01 9.578001e+01 1.300000e+01
      vertex   3.640000e+01 9.828001e+01 1.300000e+01
      vertex   3.640000e+01 1.032800e+02 1.300000e+01
    endloop
  endfacet
  facet normal 0.000000e+00 0.000000e+00 1.000000e+00
    outer loop
      vertex   1.393000e+02 1.692800e+02 1.300000e+01
      vertex   1.368000e+02 1.617800e+02 1.300000e+01
      vertex   1.393000e+02 9.578001e+01 1.300000e+01
    endloop
  endfacet
  facet normal 0.000000e+00 0.000000e+00 1.000000e+00
    outer loop
      vertex   1.393000e+02 9.578001e+01 1.300000e+01
      vertex   1.368000e+02 1.617800e+02 1.300000e+01
      vertex   1.368000e+02 1.032800e+02 1.300000e+01
    endloop
  endfacet
  facet normal 0.000000e+00 0.000000e+00 1.000000e+00
    outer loop
      vertex   1.393000e+02 9.578001e+01 1.300000e+01
      vertex   1.368000e+02 1.032800e+02 1.300000e+01
      vertex   1.368000e+02 9.828001e+01 1.300000e+01
    endloop
  endfacet
  facet normal -0.000000e+00 0.000000e+00 1.000000e+00
    outer loop
      vertex   3.390000e+01 1.692800e+02 1.300000e+01
      vertex   1.318000e+02 1.667800e+02 1.300000e+01
      vertex   1.393000e+02 1.692800e+02 1.300000e+01
    endloop
  endfacet
  facet normal 0.000000e+00 0.000000e+00 1.000000e+00
    outer loop
      vertex   1.393000e+02 1.692800e+02 1.300000e+01
      vertex   1.318000e+02 1.667800e+02 1.300000e+01
      vertex   1.368000e+02 1.667800e+02 1.300000e+01
    endloop
  endfacet
  facet normal 0.000000e+00 0.000000e+00 1.000000e+00
    outer loop
      vertex   1.393000e+02 1.692800e+02 1.300000e+01
      vertex   1.368000e+02 1.667800e+02 1.300000e+01
      vertex   1.368000e+02 1.617800e+02 1.300000e+01
    endloop
  endfacet
  facet normal 0.000000e+00 0.000000e+00 1.000000e+00
    outer loop
      vertex   3.390000e+01 9.578001e+01 1.300000e+01
      vertex   3.640000e+01 1.617800e+02 1.300000e+01
      vertex   3.390000e+01 1.692800e+02 1.300000e+01
    endloop
  endfacet
  facet normal 0.000000e+00 0.000000e+00 1.000000e+00
    outer loop
      vertex   3.390000e+01 1.692800e+02 1.300000e+01
      vertex   3.640000e+01 1.617800e+02 1.300000e+01
      vertex   3.640000e+01 1.667800e+02 1.300000e+01
    endloop
  endfacet
  facet normal 0.000000e+00 0.000000e+00 1.000000e+00
    outer loop
      vertex   3.390000e+01 1.692800e+02 1.300000e+01
      vertex   3.640000e+01 1.667800e+02 1.300000e+01
      vertex   4.140000e+01 1.667800e+02 1.300000e+01
    endloop
  endfacet
  facet normal -0.000000e+00 0.000000e+00 1.000000e+00
    outer loop
      vertex   4.390000e+01 1.057800e+02 1.300000e+01
      vertex   1.318000e+02 9.828001e+01 1.300000e+01
      vertex   1.293000e+02 1.057800e+02 1.300000e+01
    endloop
  endfacet
  facet normal 0.000000e+00 0.000000e+00 1.000000e+00
    outer loop
      vertex   1.293000e+02 1.057800e+02 1.300000e+01
      vertex   1.318000e+02 9.828001e+01 1.300000e+01
      vertex   1.318000e+02 1.032800e+02 1.300000e+01
    endloop
  endfacet
  facet normal 0.000000e+00 0.000000e+00 1.000000e+00
    outer loop
      vertex   1.293000e+02 1.057800e+02 1.300000e+01
      vertex   1.318000e+02 1.032800e+02 1.300000e+01
      vertex   1.368000e+02 1.032800e+02 1.300000e+01
    endloop
  endfacet
  facet normal 0.000000e+00 0.000000e+00 1.000000e+00
    outer loop
      vertex   4.390000e+01 1.592800e+02 1.300000e+01
      vertex   3.640000e+01 1.032800e+02 1.300000e+01
      vertex   4.390000e+01 1.057800e+02 1.300000e+01
    endloop
  endfacet
  facet normal 0.000000e+00 0.000000e+00 1.000000e+00
    outer loop
      vertex   4.390000e+01 1.057800e+02 1.300000e+01
      vertex   3.640000e+01 1.032800e+02 1.300000e+01
      vertex   4.140000e+01 1.032800e+02 1.300000e+01
    endloop
  endfacet
  facet normal 0.000000e+00 0.000000e+00 1.000000e+00
    outer loop
      vertex   4.390000e+01 1.057800e+02 1.300000e+01
      vertex   4.140000e+01 1.032800e+02 1.300000e+01
      vertex   4.140000e+01 9.828001e+01 1.300000e+01
    endloop
  endfacet
  facet normal 0.000000e+00 0.000000e+00 1.000000e+00
    outer loop
      vertex   1.293000e+02 1.592800e+02 1.300000e+01
      vertex   4.140000e+01 1.667800e+02 1.300000e+01
      vertex   4.390000e+01 1.592800e+02 1.300000e+01
    endloop
  endfacet
  facet normal 0.000000e+00 0.000000e+00 1.000000e+00
    outer loop
      vertex   4.390000e+01 1.592800e+02 1.300000e+01
      vertex   4.140000e+01 1.667800e+02 1.300000e+01
      vertex   4.140000e+01 1.617800e+02 1.300000e+01
    endloop
  endfacet
  facet normal 0.000000e+00 0.000000e+00 1.000000e+00
    outer loop
      vertex   4.390000e+01 1.592800e+02 1.300000e+01
      vertex   4.140000e+01 1.617800e+02 1.300000e+01
      vertex   3.640000e+01 1.617800e+02 1.300000e+01
    endloop
  endfacet
  facet normal -0.000000e+00 0.000000e+00 1.000000e+00
    outer loop
      vertex   1.293000e+02 1.057800e+02 1.300000e+01
      vertex   1.368000e+02 1.032800e+02 1.300000e+01
      vertex   1.293000e+02 1.592800e+02 1.300000e+01
    endloop
  endfacet
  facet normal -0.000000e+00 0.000000e+00 1.000000e+00
    outer loop
      vertex   1.293000e+02 1.592800e+02 1.300000e+01
      vertex   1.368000e+02 1.032800e+02 1.300000e+01
      vertex   1.368000e+02 1.617800e+02 1.300000e+01
    endloop
  endfacet
  facet normal 0.000000e+00 0.000000e+00 1.000000e+00
    outer loop
      vertex   1.293000e+02 1.592800e+02 1.300000e+01
      vertex   1.368000e+02 1.617800e+02 1.300000e+01
      vertex   1.318000e+02 1.617800e+02 1.300000e+01
    endloop
  endfacet
  facet normal 0.000000e+00 -0.000000e+00 1.000000e+00
    outer loop
      vertex   1.318000e+02 1.617800e+02 1.300000e+01
      vertex   1.318000e+02 1.667800e+02 1.300000e+01
      vertex   1.293000e+02 1.592800e+02 1.300000e+01
    endloop
  endfacet
  facet normal 0.000000e+00 -0.000000e+00 1.000000e+00
    outer loop
      vertex   1.293000e+02 1.592800e+02 1.300000e+01
      vertex   1.318000e+02 1.667800e+02 1.300000e+01
      vertex   4.140000e+01 1.667800e+02 1.300000e+01
    endloop
  endfacet
  facet normal 0.000000e+00 0.000000e+00 1.000000e+00
    outer loop
      vertex   1.368000e+02 9.828001e+01 1.300000e+01
      vertex   1.318000e+02 9.828001e+01 1.300000e+01
      vertex   1.393000e+02 9.578001e+01 1.300000e+01
    endloop
  endfacet
  facet normal 0.000000e+00 0.000000e+00 1.000000e+00
    outer loop
      vertex   1.393000e+02 9.578001e+01 1.300000e+01
      vertex   1.318000e+02 9.828001e+01 1.300000e+01
      vertex   4.140000e+01 9.828001e+01 1.300000e+01
    endloop
  endfacet
  facet normal 0.000000e+00 0.000000e+00 1.000000e+00
    outer loop
      vertex   4.390000e+01 1.057800e+02 1.300000e+01
      vertex   4.140000e+01 9.828001e+01 1.300000e+01
      vertex   1.318000e+02 9.828001e+01 1.300000e+01
    endloop
  endfacet
  facet normal 0.000000e+00 0.000000e+00 1.000000e+00
    outer loop
      vertex   3.390000e+01 1.692800e+02 1.300000e+01
      vertex   4.140000e+01 1.667800e+02 1.300000e+01
      vertex   1.318000e+02 1.667800e+02 1.300000e+01
    endloop
  endfacet
  facet normal 0.000000e+00 0.000000e+00 1.000000e+00
    outer loop
      vertex   4.390000e+01 1.592800e+02 1.300000e+01
      vertex   3.640000e+01 1.617800e+02 1.300000e+01
      vertex   3.640000e+01 1.032800e+02 1.300000e+01
    endloop
  endfacet
  facet normal 0.000000e+00 -0.000000e+00 1.000000e+00
    outer loop
      vertex   3.640000e+01 1.032800e+02 1.300000e+01
      vertex   3.640000e+01 1.617800e+02 1.300000e+01
      vertex   3.390000e+01 9.578001e+01 1.300000e+01
    endloop
  endfacet
  facet normal 0.000000e+00 0.000000e+00 1.000000e+00
    outer loop
      vertex   4.390000e+01 1.057800e+02 3.000000e+00
      vertex   1.293000e+02 1.057800e+02 3.000000e+00
      vertex   4.390000e+01 1.592800e+02 3.000000e+00
    endloop
  endfacet
  facet normal -0.000000e+00 0.000000e+00 1.000000e+00
    outer loop
      vertex   4.390000e+01 1.592800e+02 3.000000e+00
      vertex   1.293000e+02 1.057800e+02 3.000000e+00
      vertex   1.293000e+02 1.592800e+02 3.000000e+00
    endloop
  endfacet
  facet normal 0.000000e+00 0.000000e+00 -1.000000e+00
    outer loop
      vertex   1.393000e+02 9.578001e+01 0.000000e+00
      vertex   3.390000e+01 9.578001e+01 0.000000e+00
      vertex   1.393000e+02 1.692800e+02 0.000000e+00
    endloop
  endfacet
  facet normal -0.000000e+00 0.000000e+00 -1.000000e+00
    outer loop
      vertex   1.393000e+02 1.692800e+02 0.000000e+00
      vertex   3.390000e+01 9.578001e+01 0.000000e+00
      vertex   3.390000e+01 1.692800e+02 0.000000e+00
    endloop
  endfacet
endsolid
